<svg width="308" height="119" viewBox="0 0 308 119" fill="none" xmlns="http://www.w3.org/2000/svg">
<rect width="308" height="119" rx="12" fill="#1E1E1E"/>
<path d="M125.8 66.74C124.693 66.74 123.667 66.56 122.72 66.2C121.787 65.84 120.973 65.3333 120.28 64.68C119.6 64.0267 119.067 63.26 118.68 62.38C118.307 61.5 118.12 60.54 118.12 59.5C118.12 58.46 118.307 57.5 118.68 56.62C119.067 55.74 119.607 54.9733 120.3 54.32C120.993 53.6667 121.807 53.16 122.74 52.8C123.673 52.44 124.687 52.26 125.78 52.26C126.887 52.26 127.9 52.44 128.82 52.8C129.753 53.16 130.56 53.6667 131.24 54.32C131.933 54.9733 132.473 55.74 132.86 56.62C133.247 57.4867 133.44 58.4467 133.44 59.5C133.44 60.54 133.247 61.5067 132.86 62.4C132.473 63.28 131.933 64.0467 131.24 64.7C130.56 65.34 129.753 65.84 128.82 66.2C127.9 66.56 126.893 66.74 125.8 66.74ZM125.78 63.98C126.407 63.98 126.98 63.8733 127.5 63.66C128.033 63.4467 128.5 63.14 128.9 62.74C129.3 62.34 129.607 61.8667 129.82 61.32C130.047 60.7733 130.16 60.1667 130.16 59.5C130.16 58.8333 130.047 58.2267 129.82 57.68C129.607 57.1333 129.3 56.66 128.9 56.26C128.513 55.86 128.053 55.5533 127.52 55.34C126.987 55.1267 126.407 55.02 125.78 55.02C125.153 55.02 124.573 55.1267 124.04 55.34C123.52 55.5533 123.06 55.86 122.66 56.26C122.26 56.66 121.947 57.1333 121.72 57.68C121.507 58.2267 121.4 58.8333 121.4 59.5C121.4 60.1533 121.507 60.76 121.72 61.32C121.947 61.8667 122.253 62.34 122.64 62.74C123.04 63.14 123.507 63.4467 124.04 63.66C124.573 63.8733 125.153 63.98 125.78 63.98ZM138.58 66.5V55.14H134.1V52.5H146.3V55.14H141.82V66.5H138.58ZM157.643 52.5H160.883V66.5H157.643V52.5ZM151.283 66.5H148.043V52.5H151.283V66.5ZM157.883 60.76H151.043V58.02H157.883V60.76ZM167.175 58.14H173.915V60.66H167.175V58.14ZM167.415 63.9H175.035V66.5H164.195V52.5H174.775V55.1H167.415V63.9ZM177.613 66.5V52.5H183.673C184.926 52.5 186.006 52.7067 186.913 53.12C187.82 53.52 188.52 54.1 189.013 54.86C189.506 55.62 189.753 56.5267 189.753 57.58C189.753 58.62 189.506 59.52 189.013 60.28C188.52 61.0267 187.82 61.6 186.913 62C186.006 62.4 184.926 62.6 183.673 62.6H179.413L180.853 61.18V66.5H177.613ZM186.513 66.5L183.013 61.42H186.473L190.013 66.5H186.513ZM180.853 61.54L179.413 60.02H183.493C184.493 60.02 185.24 59.8067 185.733 59.38C186.226 58.94 186.473 58.34 186.473 57.58C186.473 56.8067 186.226 56.2067 185.733 55.78C185.24 55.3533 184.493 55.14 183.493 55.14H179.413L180.853 53.6V61.54Z" fill="white"/>
</svg>
